<svg height="512" viewBox="0 0 128 128" width="512" xmlns="http://www.w3.org/2000/svg"><g><g><path d="m58.846 24.192c20.335.808 33.238 22.078 33.238 22.078l-32.177 1.33c1.593-5.152 1.238-15.9-1.061-23.408z" fill="#eaeaf0"/><path d="m61.672 103.808c20.334-.658 30.412-18.042 30.412-18.042l-29.351-1.086c1.591 4.21 1.237 12.996-1.061 19.128z" fill="#eaeaf0"/><path d="m121.5 65.805s-10.49 18.955-30.313 25.195a42.279 42.279 0 0 1 -12.813 1.975c-20 0-41.2-13.771-51.772-21.708v.16c-3.031 6.84-11.377 12.893-20.1 13.292 0-6.961 4.687-18.916 4.687-18.916s-4.689-11.964-4.689-18.924c8.725.4 17.071 6.462 20.1 13.3v.15c10.57-7.928 31.769-21.7 51.772-21.7a42.489 42.489 0 0 1 14.388 2.493c18.808 6.734 28.74 24.683 28.74 24.683z" fill="#3ba9fd"/><path d="m121.5 65.805s-10.49 18.955-30.313 25.195a80.913 80.913 0 0 1 -3.087-22.573 78.064 78.064 0 0 1 4.666-27.3c18.802 6.729 28.734 24.678 28.734 24.678z" fill="#0093df"/><circle cx="99.283" cy="56.615" fill="#d8d8d8" r="3"/></g><g fill="#111b35"><path d="m42.939 79.945q-1.7-.964-3.3-1.942a1.75 1.75 0 1 0 -1.818 2.99q1.645 1 3.387 1.993a1.725 1.725 0 0 0 .864.23 1.75 1.75 0 0 0 .867-3.271z"/><path d="m123.031 64.957c-.418-.756-10.472-18.6-29.679-25.479a44.473 44.473 0 0 0 -5.511-1.578 56.559 56.559 0 0 0 -8.959-8.109 1.75 1.75 0 1 0 -2.04 2.844 49.693 49.693 0 0 1 5.258 4.405q-1.855-.155-3.73-.157a57.093 57.093 0 0 0 -15.747 2.417 57.823 57.823 0 0 0 -1.435-13.16 30.831 30.831 0 0 1 8.373 2.326 1.75 1.75 0 0 0 1.389-3.213 33.7 33.7 0 0 0 -12.03-2.812 1.751 1.751 0 0 0 -1.743 2.259 52.737 52.737 0 0 1 1.923 15.711c-12.623 4.306-24.214 11.7-31.822 17.242a26.206 26.206 0 0 0 -20.698-12.522 1.8 1.8 0 0 0 -1.289.482 1.749 1.749 0 0 0 -.541 1.266c0 6.347 3.575 16.3 4.563 18.926-.988 2.627-4.563 12.569-4.563 18.916a1.749 1.749 0 0 0 .541 1.265 1.773 1.773 0 0 0 1.289.483 26.2 26.2 0 0 0 20.7-12.519c1.673 1.221 3.375 2.411 5.08 3.555a1.75 1.75 0 0 0 1.952-2.905c-2.245-1.5-4.486-3.095-6.659-4.727a1.749 1.749 0 0 0 -2.78 1.135c-2.781 5.944-9.6 10.736-16.514 11.776.691-6.662 4.415-16.232 4.457-16.338a1.746 1.746 0 0 0 0-1.276c-.042-.106-3.766-9.685-4.457-16.349 6.914 1.042 13.735 5.84 16.516 11.791a1.749 1.749 0 0 0 2.777 1.121c10.631-7.972 31.356-21.347 50.722-21.347a40.917 40.917 0 0 1 12.153 1.842 80.824 80.824 0 0 0 -4.181 26.2 84.174 84.174 0 0 0 2.7 21.377 40.69 40.69 0 0 1 -10.675 1.422c-8.7 0-18.585-2.709-29.372-8.052a1.75 1.75 0 0 0 -1.554 3.137 92.6 92.6 0 0 0 14.495 5.805 33.974 33.974 0 0 1 -1.911 11.076 1.751 1.751 0 0 0 1.638 2.367h.056a38.382 38.382 0 0 0 26.252-11.89c1.257-.28 2.5-.608 3.734-1 20.258-6.379 30.877-25.221 31.319-26.02a1.749 1.749 0 0 0 .003-1.693zm-58.908 36.931a39.6 39.6 0 0 0 1.289-8.828 54.716 54.716 0 0 0 12.962 1.667q1.664 0 3.317-.125a34.129 34.129 0 0 1 -17.568 7.286zm28.264-13.144a80.723 80.723 0 0 1 -2.541-20.316 77.326 77.326 0 0 1 3.974-25.022c14.655 5.944 23.5 18.958 25.641 22.4-2.203 3.552-11.53 17.285-27.074 22.938z"/><path d="m46.626 54.419a1.748 1.748 0 0 0 -2.387-.654c-2.356 1.341-4.761 2.814-7.149 4.376a1.75 1.75 0 0 0 1.916 2.929c2.328-1.523 4.671-2.958 6.966-4.264a1.75 1.75 0 0 0 .654-2.387z"/><path d="m73.753 52.632a1.755 1.755 0 0 0 -2.019 1.431 87.9 87.9 0 0 0 -.662 23.913 1.749 1.749 0 0 0 1.737 1.554c.065 0 .131 0 .2-.01a1.751 1.751 0 0 0 1.544-1.935 84.416 84.416 0 0 1 .634-22.934 1.749 1.749 0 0 0 -1.434-2.019z"/><path d="m79.022 57.526a1.747 1.747 0 0 0 -1.946 1.529 78.757 78.757 0 0 0 -.541 9.373c0 1.577.045 3.112.133 4.563a1.751 1.751 0 0 0 1.746 1.644h.107a1.751 1.751 0 0 0 1.641-1.854c-.084-1.38-.127-2.843-.127-4.35a75.129 75.129 0 0 1 .516-8.955 1.751 1.751 0 0 0 -1.529-1.95z"/><path d="m99.283 51.865a4.75 4.75 0 1 0 4.75 4.75 4.756 4.756 0 0 0 -4.75-4.75zm0 6a1.25 1.25 0 1 1 1.25-1.25 1.25 1.25 0 0 1 -1.25 1.25z"/></g></g></svg>