<svg height="512" viewBox="0 0 128 128" width="512" xmlns="http://www.w3.org/2000/svg"><g><g><path d="m99.41 102.59c-3-4.7-20.03-15.03-35.41-.7v-7.46c15.34-13.6 32.29-6.22 35.41 8.16z" fill="#a5cc2a"/><path d="m28.59 102.59c3-4.7 20.03-15.03 35.41-.7v-7.46c-15.34-13.6-32.29-6.22-35.41 8.16z" fill="#a5cc2a"/><g fill="#ffd203"><path d="m78.826 39.826c-5.272 5.272-14.761 4.331-14.761 4.331s-.941-9.489 4.335-14.757 14.761-4.331 14.761-4.331.939 9.485-4.335 14.757z"/><path d="m78.826 56.528c-5.272 5.272-14.761 4.331-14.761 4.331s-.941-9.489 4.335-14.759 14.761-4.331 14.761-4.331.939 9.487-4.335 14.759z"/><path d="m78.826 73.23c-5.272 5.272-14.761 4.331-14.761 4.331s-.941-9.489 4.335-14.761 14.761-4.331 14.761-4.331.939 9.489-4.335 14.761z"/><path d="m49.174 39.826c5.272 5.272 14.761 4.331 14.761 4.331s.941-9.489-4.335-14.757-14.761-4.331-14.761-4.331-.939 9.485 4.335 14.757z"/><path d="m49.174 56.528c5.272 5.272 14.761 4.331 14.761 4.331s.941-9.489-4.335-14.759-14.761-4.331-14.761-4.331-.939 9.487 4.335 14.759z"/><path d="m49.174 73.23c5.272 5.272 14.761 4.331 14.761 4.331s.941-9.489-4.335-14.761-14.761-4.331-14.761-4.331-.939 9.489 4.335 14.761z"/><path d="m71.375 20c0 7.456-7.375 13.5-7.375 13.5s-7.375-6.044-7.375-13.5 7.375-13.5 7.375-13.5 7.375 6.044 7.375 13.5z"/></g><path d="m64 92.211c17.625-17.875 34.74-13.259 39.808 1.683-4.183-4.808-22.183-13.433-39.808 6.567z" fill="#bae543"/><path d="m64 92.211c-17.625-17.875-34.74-13.259-39.808 1.683 4.183-4.808 22.183-13.433 39.808 6.567z" fill="#bae543"/></g><g fill="#111b35"><path d="m105.465 93.332c-3.339-9.845-11.44-15.34-21.16-14.33a1.75 1.75 0 0 0 .361 3.481 15.45 15.45 0 0 1 14.346 5.99 26.632 26.632 0 0 0 -10.866-2.364h-.083c-5.621 0-13.79 1.856-22.313 10.015v-3.175a48.823 48.823 0 0 1 6.067-5.155 1.75 1.75 0 1 0 -2.023-2.856 49.285 49.285 0 0 0 -4.044 3.223v-8.783h.061c3.261 0 9.922-.581 14.252-4.911 5.792-5.791 4.877-15.75 4.837-16.167a1.752 1.752 0 0 0 -1.569-1.569c-.117-.011-.985-.086-2.278-.07 4.693-5.868 3.886-14.667 3.847-15.063a1.753 1.753 0 0 0 -1.569-1.569c-.117-.011-.985-.086-2.278-.07 4.693-5.867 3.886-14.667 3.847-15.062a1.751 1.751 0 0 0 -1.569-1.569 26.1 26.1 0 0 0 -11.1 1.572 14.588 14.588 0 0 0 .9-4.9c0-8.19-7.688-14.585-8.016-14.854a1.751 1.751 0 0 0 -2.218 0 27.343 27.343 0 0 0 -5.16 5.962 1.75 1.75 0 0 0 2.958 1.871 24.282 24.282 0 0 1 3.305-4.093c1.912 1.914 5.625 6.249 5.625 11.114s-3.713 9.2-5.625 11.113c-1.913-1.913-5.625-6.249-5.625-11.113a1.75 1.75 0 0 0 -3.5 0 14.588 14.588 0 0 0 .9 4.9 26.12 26.12 0 0 0 -11.1-1.572 1.751 1.751 0 0 0 -1.575 1.565c-.039.395-.846 9.2 3.847 15.062-1.293-.016-2.161.059-2.278.07a1.753 1.753 0 0 0 -1.569 1.569c-.039.4-.846 9.2 3.847 15.063-1.293-.016-2.161.059-2.278.07a1.752 1.752 0 0 0 -1.569 1.573c-.041.421-.956 10.38 4.836 16.171 4.331 4.331 10.991 4.911 14.252 4.911h.061v8.783c-8.492-7.485-17.349-10.604-25.26-8.785-6.7 1.538-11.968 6.62-14.454 13.952a1.75 1.75 0 0 0 2.978 1.71 17.805 17.805 0 0 1 8.282-4.6 21.576 21.576 0 0 0 -6.915 11.781 1.75 1.75 0 0 0 3.185 1.312c1.278-2 6.639-6.118 13.8-7.028 6.558-.834 12.9 1.305 18.38 6.172v18.821a1.75 1.75 0 0 0 3.5 0v-18.825c5.481-4.867 11.82-7.008 18.38-6.172 7.166.91 12.527 5.027 13.805 7.028a1.75 1.75 0 0 0 3.185-1.312 21.6 21.6 0 0 0 -6.911-11.78 17.8 17.8 0 0 1 8.278 4.6 1.75 1.75 0 0 0 2.978-1.71zm-24-33.176h.01c.006 2.7-.429 8.381-3.884 11.836-3.437 3.437-9.123 3.881-11.829 3.881h-.007c0-.061 0-.132 0-.2.015-2.767.5-8.263 3.882-11.64a11.522 11.522 0 0 1 3.775-2.443c.5-.155 1-.335 1.506-.535a23.357 23.357 0 0 1 6.545-.899zm0-16.7h.01c.006 2.7-.429 8.38-3.884 11.836a11.587 11.587 0 0 1 -3.857 2.475c-.474.148-.947.313-1.42.5a23.382 23.382 0 0 1 -6.553.9h-.006c0-.061 0-.131 0-.2.015-2.768.5-8.263 3.882-11.641a11.539 11.539 0 0 1 3.775-2.443c.5-.154 1-.335 1.506-.535a23.351 23.351 0 0 1 6.545-.893zm0-16.7h.011c.006 2.7-.429 8.38-3.884 11.836a11.56 11.56 0 0 1 -3.855 2.474c-.475.149-.951.315-1.425.5a23.359 23.359 0 0 1 -6.55.9h-.006c0-.062 0-.132 0-.2.015-2.768.5-8.263 3.882-11.64 3.432-3.426 9.118-3.873 11.824-3.873zm-31.054 11.833c-3.439-3.44-3.881-9.132-3.881-11.836h.008c2.708 0 8.392.445 11.829 3.881 3.421 3.422 3.876 9.07 3.88 11.791v.048h-.053a23.191 23.191 0 0 1 -6.4-.866c-.528-.214-1.058-.4-1.587-.56a11.577 11.577 0 0 1 -3.796-2.458zm0 16.7c-3.441-3.442-3.882-9.138-3.881-11.84h.053a23.209 23.209 0 0 1 6.42.872c.546.221 1.094.417 1.641.584a11.54 11.54 0 0 1 3.723 2.428c3.421 3.423 3.876 9.071 3.88 11.791v.049a23.026 23.026 0 0 1 -6.38-.84c-.569-.234-1.142-.428-1.713-.6a11.58 11.58 0 0 1 -3.743-2.442zm0 16.7c-3.441-3.441-3.882-9.137-3.881-11.839h.053a23.171 23.171 0 0 1 6.42.872c.546.221 1.094.417 1.641.584a11.54 11.54 0 0 1 3.723 2.428c3.421 3.422 3.876 9.069 3.88 11.79v.046h-.007c-2.708.003-8.392-.442-11.829-3.878zm-12.639 10.8c7.464-1.715 16.136 1.9 24.478 10.157v3.175c-8.563-8.2-16.759-10.055-22.4-10.014a26.607 26.607 0 0 0 -10.85 2.361 15.3 15.3 0 0 1 8.772-5.677zm5.657 10.24a27.951 27.951 0 0 0 -10.444 3.557 16.9 16.9 0 0 1 9.173-6.866 26.464 26.464 0 0 1 11.619 4.153 25.134 25.134 0 0 0 -10.348-.842zm41.142 0a25.161 25.161 0 0 0 -10.312.833 26.718 26.718 0 0 1 11.619-4.132 16.732 16.732 0 0 1 9.2 6.894 27.94 27.94 0 0 0 -10.507-3.593z"/><path d="m78.279 80.41c-.926.334-1.866.726-2.794 1.166a1.75 1.75 0 1 0 1.5 3.162c.826-.391 1.66-.74 2.481-1.035a1.75 1.75 0 1 0 -1.187-3.293z"/></g></g></svg>