<?xml version="1.0" encoding="iso-8859-1"?>
<!-- Generator: Adobe Illustrator 19.0.0, SVG Export Plug-In . SVG Version: 6.00 Build 0)  -->
<svg version="1.1" id="Capa_1" xmlns="http://www.w3.org/2000/svg" xmlns:xlink="http://www.w3.org/1999/xlink" x="0px" y="0px"
	 viewBox="0 0 512 512" style="enable-background:new 0 0 512 512;" xml:space="preserve">
<g>
	<g>
		<path d="M455.758,453.121c-11.16-90.114-32.851-246.92-52.662-284.541c-20.961-39.792-63.022-61.452-105.254-58.482
			C265.636,95.319,271,112.709,271,85.755c7.387,0,77.547,0,88.641,0c24.502,0,44.435-19.934,44.435-44.435V16.718h-30.001V41.32
			c0,7.958-6.475,14.434-14.434,14.434H336.98c3.508-9.85,2.604-13.202,2.604-55.753h-30.001v40.67
			c0,8.316-6.767,15.084-15.085,15.084H271V16.718h-30.001v39.036h-23.497c-8.317,0-15.085-6.767-15.085-15.084V0h-30.001
			c0,42.92-0.848,46.062,2.604,55.753h-22.663c-7.958,0-14.434-6.475-14.434-14.434V16.718h-30.001V41.32
			c0,24.501,19.934,44.435,44.435,44.435c11.094,0,81.221,0,88.641,0c0,27.181,5.337,9.557-26.821,24.332
			c-42.242-2.97-84.313,18.691-105.274,58.492C89.093,206.2,67.402,363.006,56.242,453.12c-2.92,23.562,24.908,38.137,42.612,22.441
			c27.681-24.511,63.482-56.712,97.544-88.813c9.02,33.881,18.591,68.663,27.661,101.054c9.016,32.258,54.862,32.271,63.882,0
			c9.07-32.391,18.641-67.173,27.661-101.054c34.061,32.101,69.863,64.302,97.544,88.813
			C430.849,491.256,458.678,476.682,455.758,453.121z M87.413,445.61c17.601-139.655,35.891-239.979,48.042-263.05
			c8.15-15.482,20.681-27.182,35.281-34.391c-26.003,41.238-17.139,74.248,16.931,205.438
			C159.446,380.558,125.595,411.659,87.413,445.61z M256,482.031c-5.456,0-70.703-247.387-70.703-280.341
			c0-34.592,25.06-63.505,57.712-69.503c43.402-8.144,83.693,25.342,83.693,69.503C326.703,234.598,261.471,482.031,256,482.031z
			 M324.333,353.607c34.212-131.74,42.813-164.393,16.931-205.438c14.601,7.21,27.131,18.911,35.281,34.391
			c12.15,23.071,30.441,123.395,48.042,263.05C386.405,411.659,352.554,380.558,324.333,353.607z"/>
	</g>
</g>
<g>
</g>
<g>
</g>
<g>
</g>
<g>
</g>
<g>
</g>
<g>
</g>
<g>
</g>
<g>
</g>
<g>
</g>
<g>
</g>
<g>
</g>
<g>
</g>
<g>
</g>
<g>
</g>
<g>
</g>
</svg>
