<?xml version="1.0" encoding="iso-8859-1"?>
<!-- Generator: Adobe Illustrator 19.0.0, SVG Export Plug-In . SVG Version: 6.00 Build 0)  -->
<svg version="1.1" id="Capa_1" xmlns="http://www.w3.org/2000/svg" xmlns:xlink="http://www.w3.org/1999/xlink" x="0px" y="0px"
	 viewBox="0 0 512 512" style="enable-background:new 0 0 512 512;" xml:space="preserve">
<g>
	<g>
		<g>
			<path d="M512,195.65c0-1.24-0.108-2.479-0.325-3.7c-0.178-1.235-0.634-2.414-1.333-3.448
				c-6.403-35.513-77.896-91.613-218.084-142.789C181.542,5.292,81.333-9.85,42.925,8.054c-7.714,3.09-13.836,9.191-16.95,16.896
				C14.862,55.563,65.49,97.288,137.467,134.623C84.978,141.559,0,158.532,0,195.65c0,0.164,0.045,0.533,0.051,0.769
				C0.049,196.509,0,196.584,0,196.675v246.441c0,44.817,128.783,68.267,256,68.267s256-23.45,256-68.267V196.675
				c0-0.092-0.05-0.168-0.054-0.26C511.953,196.181,512,195.814,512,195.65z M42.025,30.775c1.652-3.387,4.566-5.992,8.117-7.254
				c12.131-4.466,25.041-6.426,37.95-5.762c43.583,0,114.017,13.208,198.317,43.988C426.267,112.8,501.267,174.133,493.475,195.633
				c-1.652,3.387-4.566,5.992-8.117,7.254c-16.117,7.513-51.681,8.02-100.503-0.544c-0.071-0.01-0.125-0.056-0.197-0.065
				l-0.394-0.04c-46.057-8.617-91.284-21.189-135.181-37.577c-29.084-10.618-55.319-21.681-78.632-32.736
				c-0.184-0.07-0.335-0.19-0.524-0.247C81.469,89.65,35.853,47.764,42.025,30.775z M264.7,212.717
				c38.796-0.074,77.566,2.039,116.125,6.328c12.874,2.299,25.073,4.021,36.466,5.15c6.464,1.063,12.76,2.264,18.944,3.537
				c-59.067,13.739-119.6,20.16-180.235,19.118c-6.22,0-12.394-0.06-18.522-0.181c-0.867-0.015-1.73-0.032-2.593-0.049
				c-40.413-0.637-80.727-4.204-120.624-10.673c-2.082-0.359-4.162-0.72-6.184-1.093c-1.103-0.201-2.16-0.415-3.248-0.621
				c-7.462-1.423-14.506-2.928-21.087-4.505C143.283,217.629,203.947,211.926,264.7,212.717z M57.308,218.954
				c-1.292,0.41-2.464,1.13-3.414,2.097c-6.611-2.31-13.039-5.113-19.231-8.384c35.355-18.832,115.031-32.382,203.443-33.878
				c1.71,0.635,3.415,1.281,5.128,1.907c15.291,5.582,30.374,10.672,45.129,15.27c-7.84-0.159-15.684-0.316-23.662-0.316
				C182.925,195.65,107.342,204.146,57.308,218.954z M165.802,148.587c10.643,4.989,21.592,9.856,32.752,14.559
				c-81.37,4.564-148.054,18.754-178.829,38.422c-1.318-1.465-2.198-3.27-2.54-5.21c-0.009-0.086-0.046-0.176-0.052-0.262
				l-0.009-0.033c-0.015-0.188-0.029-0.375-0.058-0.563C17.406,181.707,63.659,158.276,165.802,148.587z M494.933,443.117
				c0,21.379-90.9,51.2-238.933,51.2s-238.933-29.821-238.933-51.2V221.858c0.187,0.132,0.426,0.253,0.615,0.385
				c1.919,1.324,3.997,2.624,6.234,3.898c0.826,0.477,1.662,0.95,2.527,1.417c1.705,0.911,3.496,1.807,5.36,2.691
				c1.745,0.84,3.534,1.667,5.403,2.475c0.993,0.425,2.018,0.843,3.048,1.26c2.94,1.206,5.995,2.379,9.199,3.513l0.05,0.017
				c28.529,9.321,57.929,15.726,87.75,19.117c1.064,0.14,2.136,0.275,3.209,0.41c4.299,0.54,8.645,1.048,13.037,1.526
				c2.136,0.233,4.285,0.459,6.446,0.678c3.433,0.344,6.889,0.668,10.368,0.972c2.973,0.264,5.954,0.52,8.974,0.756
				c2.87,0.223,5.756,0.423,8.651,0.62c3.452,0.237,6.904,0.47,10.409,0.671c2.796,0.16,5.607,0.29,8.418,0.426
				c3.503,0.171,6.992,0.347,10.541,0.481c3.38,0.128,6.772,0.212,10.164,0.306c3.003,0.083,5.978,0.187,9.009,0.244
				c6.504,0.125,13.011,0.19,19.521,0.195c5.519,0,11.043-0.061,16.563-0.15c1.188-0.019,2.373-0.037,3.561-0.061
				c5.401-0.106,10.79-0.253,16.169-0.439c0.844-0.03,1.682-0.069,2.526-0.101c4.919-0.187,9.819-0.41,14.698-0.67
				c0.94-0.05,1.883-0.093,2.821-0.146c5.32-0.297,10.603-0.638,15.851-1.022c1.087-0.079,2.165-0.165,3.249-0.247
				c5.126-0.391,10.22-0.812,15.254-1.284l0.834-0.073c5.211-0.493,10.345-1.044,15.434-1.623c1.102-0.125,2.201-0.253,3.297-0.381
				c5.018-0.593,9.98-1.221,14.852-1.898c0.593-0.083,1.17-0.173,1.761-0.257c4.491-0.637,8.908-1.311,13.252-2.022
				c0.887-0.145,1.781-0.284,2.662-0.432c4.625-0.776,9.155-1.593,13.591-2.451c0.886-0.171,1.752-0.35,2.63-0.524
				c4.155-0.827,8.23-1.684,12.193-2.584c0.428-0.097,0.871-0.188,1.297-0.286c4.198-0.967,8.249-1.985,12.208-3.034
				c0.891-0.236,1.774-0.475,2.65-0.715c3.906-1.069,7.718-2.168,11.357-3.32c0.357-0.113,0.691-0.233,1.045-0.347
				c3.362-1.08,6.58-2.2,9.692-3.351c0.713-0.263,1.436-0.523,2.135-0.791c3.221-1.231,6.295-2.501,9.22-3.81
				c0.599-0.269,1.161-0.545,1.746-0.817c2.595-1.205,5.065-2.441,7.391-3.711c0.408-0.222,0.845-0.437,1.245-0.662
				c2.505-1.409,4.804-2.866,6.961-4.354c0.245-0.169,0.55-0.324,0.79-0.494L494.933,443.117z"/>
			<path d="M470.917,260.379c-4.295-3.214-9.872-4.17-14.992-2.571C387.942,278.725,293.467,280.983,256,280.983
				c-37.467,0-131.942-2.258-199.925-23.179c-5.121-1.595-10.696-0.637-14.992,2.575c-4.361,3.237-6.938,8.344-6.95,13.775V430.65
				c-0.045,6.363,3.484,12.214,9.133,15.142C72.692,460.942,151.808,477.25,256,477.25s183.308-16.308,212.733-31.458
				c5.65-2.928,9.179-8.779,9.133-15.142V274.154C477.854,268.723,475.278,263.616,470.917,260.379z M256,460.183
				c-116.683,0-185.058-19.337-204.8-29.533l-0.142-156.533c70.2,21.6,166.708,23.933,204.942,23.933s134.741-2.333,204.8-23.896
				l0.117,156.463C441.058,440.846,372.683,460.183,256,460.183z"/>
			<path d="M413.808,316.225c-2.676-1.521-5.964-1.479-8.6,0.108L360.1,343.058c-26.383-17.496-71.675-27.942-121.167-27.942
				c-82.7,0-145.067,27.513-145.067,64s62.367,64,145.067,64c54.375,0,103.433-12.65,127.817-32.871l38.45,23.117
				c2.636,1.586,5.922,1.631,8.6,0.117c2.678-1.514,4.334-4.353,4.333-7.429v-102.4C418.135,320.577,416.482,317.74,413.808,316.225
				z M165.979,417.224c-34.216-9.182-55.045-24.14-55.045-38.107c0-13.947,20.767-28.885,54.898-38.071l1.985,3.567
				C181.21,367.158,180.496,395.385,165.979,417.224z M401.067,410.962l-25.525-15.346c-6.117-3.711-13.908-3.174-19.458,1.342
				c-21.35,17.675-67.333,29.092-117.15,29.092c-18.609,0.064-37.185-1.585-55.492-4.927c14.789-26.059,14.675-58.001-0.299-83.954
				c18.403-3.382,37.08-5.051,55.791-4.985c45.575,0,88.392,9.617,111.733,25.1c5.513,3.776,12.717,4.005,18.458,0.588
				l31.942-19.154V410.962z"/>
			<path d="M151.125,368.792c-0.425-0.341-0.858-0.683-1.283-1.025c-0.474-0.324-0.99-0.583-1.533-0.771
				c-0.51-0.258-1.059-0.43-1.625-0.508c-1.633-0.344-3.332-0.166-4.858,0.508c-1.045,0.413-2.001,1.022-2.817,1.795
				c-3.3,3.365-3.3,8.752,0,12.117c0.817,0.771,1.773,1.379,2.817,1.792c1.026,0.438,2.127,0.67,3.242,0.683
				c0.542-0.016,1.083-0.073,1.617-0.171c0.566-0.082,1.115-0.255,1.625-0.513c0.543-0.188,1.059-0.447,1.533-0.771
				c0.425-0.338,0.858-0.679,1.283-1.021c1.557-1.637,2.441-3.8,2.475-6.059c-0.013-1.116-0.245-2.219-0.683-3.246
				C152.484,370.571,151.878,369.62,151.125,368.792z"/>
			<path d="M373.575,186.904c4.582,1.012,9.121-1.865,10.161-6.441c1.04-4.576-1.809-9.133-6.378-10.201
				c-35.936-8.353-71.32-18.923-105.95-31.65c-42.143-15.099-82.994-33.589-122.15-55.287c-4.099-2.308-9.293-0.864-11.612,3.229
				c-2.32,4.092-0.89,9.29,3.195,11.621c39.979,22.161,81.688,41.046,124.717,56.471
				C300.862,167.621,336.937,178.395,373.575,186.904z"/>
			<path d="M151.908,58.554c41.752,8.673,82.797,20.457,122.792,35.254c36.097,12.998,71.284,28.398,105.325,46.096
				c4.169,2.186,9.32,0.584,11.513-3.581s0.599-9.319-3.563-11.519c-34.718-18.056-70.607-33.768-107.425-47.029
				c-40.808-15.094-82.689-27.113-125.292-35.954c-4.621-0.925-9.117,2.071-10.042,6.692
				C144.292,53.133,147.288,57.629,151.908,58.554z"/>
		</g>
	</g>
</g>
<g>
</g>
<g>
</g>
<g>
</g>
<g>
</g>
<g>
</g>
<g>
</g>
<g>
</g>
<g>
</g>
<g>
</g>
<g>
</g>
<g>
</g>
<g>
</g>
<g>
</g>
<g>
</g>
<g>
</g>
</svg>
