<svg id="Capa_1" enable-background="new 0 0 512 512" height="512" viewBox="0 0 512 512" width="512" xmlns="http://www.w3.org/2000/svg"><g><g><path d="m393.384 252.527v-156.554" fill="none" stroke="#000" stroke-miterlimit="10" stroke-width="30"/><g><path d="m332.182 64.313c0 .042.003.084.003.126-32.037 1.955-57.419 28.545-57.419 61.074 0 18.48 8.202 35.034 21.152 46.256-13.37 11.587-21.68 28.858-21.126 48.064.839 29.043 22.297 53.202 50.08 58.362-.111 1.104-.168 2.224-.168 3.358 0 18.396 14.913 33.309 33.309 33.309.154 0 .305-.01.458-.011v93.798l34.913-2.016 20-213.842-20-189.679c-33.801-.001-61.202 27.4-61.202 61.201z" fill="#58b454"/><path d="m490.848 171.769c12.95-11.222 21.152-27.776 21.152-46.256 0-32.529-25.381-59.118-57.417-61.073 0-.042.003-.084.003-.126 0-33.801-27.401-61.202-61.202-61.202v403.521l34.912-2.016v-89.767c.153.002.305.011.459.011 18.396 0 33.309-14.913 33.309-33.309 0-1.134-.058-2.254-.168-3.358 27.785-5.161 49.243-29.322 50.079-58.366.552-19.204-7.758-36.474-21.127-48.059z" fill="#3f893c"/></g><g><path d="m378.384 95.973v33.055l-20.284-14.647-17.563 24.322 37.847 27.327v25.29l-20.284-14.646-17.563 24.322 37.847 27.327v24.203h15l10-75.986-10-80.567z" fill="#86c983"/><path d="m429.485 176.585-21.101 14.912v-25.557l38.416-27.148-17.315-24.5-21.101 14.913v-33.232h-15v156.553h15v-24.294l38.416-27.147z" fill="#58b454"/></g></g><g><path d="m111.881 265.561c-11.815-12.412-28.496-20.148-46.985-20.148-35.822 0-64.861 29.039-64.861 64.861 0 0-.814 10.635 5.455 28.381 18.894 53.478 66.453 80.217 114.012 80.217l10-86.729-10-63.325c-2.778-.002-5.555-1.087-7.621-3.257z" fill="#ff8859"/><path d="m238.969 310.273c0-35.822-29.039-64.861-64.861-64.861-18.489 0-35.171 7.736-46.985 20.148-2.066 2.171-4.844 3.256-7.621 3.256v150.054c47.559 0 95.119-26.739 114.012-80.217 6.27-17.745 5.455-28.38 5.455-28.38z" fill="#ff4c04"/></g><g><path d="m119.502 206.06h-15v50.558l-34.895 34.895 21.213 21.213 13.682-13.682v20.712h15l10-54.256z" fill="#86c983"/><path d="m169.568 291.713-35.066-35.067v-50.586h-15v113.696h15v-20.684l13.853 13.854z" fill="#58b454"/></g><g><g><path d="m467.934 393.749c-.765 0-1.525.022-2.28.061-5.755-16.973-21.807-29.193-40.725-29.193-21.621 0-39.509 15.958-42.544 36.736l-10 35.399 56.115 10 82.438-10c0-23.75-19.254-43.003-43.004-43.003z" fill="#86c983"/><path d="m372.385 436.753 10 35.4c3.035 20.779 20.923 36.736 42.544 36.736 18.917 0 34.97-12.22 40.725-29.193.755.04 1.515.061 2.28.061 23.75 0 43.004-19.254 43.004-43.004z" fill="#58b454"/></g><path d="m382.385 398.855c0-18.996-16.92-33.529-35.698-30.664l-28.368 4.329-15 12.289-15-7.711-32.038 4.889-16.359 12.496-13.641-7.918-32.037 4.889-12.758 11.947-17.242-7.369-32.038 4.889-15 12.289-15-7.711-70.836 10.81c-11.706 1.786-17.56 11.115-17.56 20.442l198.691 10 169.885-10v-37.896z" fill="#ffb655"/><path d="m13.809 436.753c0 9.328 5.853 18.656 17.56 20.443l70.836 10.81 15-7.711 15 12.289 32.038 4.889 15-7.711 15 12.289 32.037 4.889 15-7.711 15 12.289 32.038 4.889 15-7.711 15 12.289 28.368 4.329c18.778 2.866 35.698-11.668 35.698-30.664v-37.898h-368.575z" fill="#ff8859"/><g><path d="m102.205 468.006 30 4.578v-35.831h-30z" fill="#ff4c04"/><path d="m102.205 436.753h30v-35.831l-30 4.578z" fill="#ff8859"/></g><g><path d="m164.243 477.473 30 4.578v-45.298h-30z" fill="#ff4c04"/><path d="m164.243 436.753h30v-45.298l-30 4.578z" fill="#ff8859"/></g><g><path d="m226.28 486.94 30 4.579v-54.766h-30z" fill="#ff4c04"/></g><g><path d="m288.318 496.408 30 4.578v-64.233h-30z" fill="#ff4c04"/></g><g fill="#ff8859"><path d="m226.28 436.753h30v-54.765l-30 4.578z"/><path d="m288.318 436.753h30v-64.233l-30 4.578z"/></g></g></g></svg>