<?xml version="1.0" encoding="iso-8859-1"?>
<!-- Generator: Adobe Illustrator 19.0.0, SVG Export Plug-In . SVG Version: 6.00 Build 0)  -->
<svg version="1.1" id="Capa_1" xmlns="http://www.w3.org/2000/svg" xmlns:xlink="http://www.w3.org/1999/xlink" x="0px" y="0px"
	 viewBox="0 0 511.969 511.969" style="enable-background:new 0 0 511.969 511.969;" xml:space="preserve">
<path style="fill:#ECF0F1;" d="M503.142,321.742v-44.138c0.005-3.513-1.389-6.884-3.873-9.368c-2.484-2.484-5.855-3.878-9.368-3.873
	s-6.884-1.389-9.368-3.873c-2.484-2.484-3.878-5.855-3.873-9.368v-8.828c0.005-3.513-1.389-6.884-3.873-9.368
	c-2.484-2.484-5.855-3.878-9.368-3.873h-11.741c-6.082,0.014-11.379-4.15-12.8-10.063l-4.237-16.684
	c-0.552-2.277-1.992-4.238-3.997-5.448c-2.006-1.21-4.412-1.569-6.684-0.996c-6.966,1.755-14.347,0.576-20.42-3.262
	c-6.073-3.837-10.306-9.997-11.713-17.042l-1.324-6.356l-0.265-1.059l-25.777-24.894c-4.228-1.617-8.715-2.454-13.241-2.472h-13.948
	c-6.974,0.011-13.794-2.048-19.597-5.914l-0.618-0.353h-45.815c-10.312,3.524-21.678,2.021-30.72-4.061
	c-7.199-4.769-15.641-7.317-24.276-7.327h-3.796c-5.897-0.02-11.407,2.934-14.654,7.857c-3.292,4.951-8.421,8.386-14.253,9.546
	c-5.831,1.16-11.885-0.052-16.82-3.367c-1.899-1.21-4.104-1.854-6.356-1.854c-3.072-0.011-6.024,1.195-8.21,3.354l-7.945,7.945
	c-1.989,2.03-3.656,4.352-4.943,6.886c-4.261,8.426-12.891,13.748-22.334,13.771c-10.963,0.016-19.846,8.899-19.862,19.862
	c0.011,4.047-2.284,7.746-5.914,9.534l-17.832,8.916c-7.054,3.582-11.516,10.804-11.564,18.714c-0.006,2.979-1.495,5.76-3.972,7.415
	l-10.681,7.15c-7.4,4.902-11.843,13.193-11.829,22.069v3.443c-0.014,4.869-3.958,8.813-8.828,8.828
	c-4.869,0.014-8.813,3.958-8.828,8.828v39.724L503.142,321.742L503.142,321.742z"/>
<path style="fill:#B0D3F0;" d="M510.116,319.799l-3.354,8.21c-23.141,56.639-62.554,105.145-113.258,139.388
	c-4.502,3.001-9.181,6.003-13.859,8.828h-0.088v18.626c0.018,4.431-1.733,8.685-4.866,11.818s-7.387,4.885-11.818,4.866H149.068
	c-4.426,0.004-8.672-1.753-11.801-4.883c-3.13-3.13-4.886-7.375-4.883-11.801v-18.626c-4.679-2.825-9.269-5.738-13.771-8.828
	C67.844,433.18,28.367,384.671,5.178,328.009l-3.354-8.21c-1.831-1.944-2.333-4.789-1.279-7.242s3.464-4.047,6.134-4.057h498.582
	c2.679-0.008,5.104,1.584,6.162,4.045C512.48,315.007,511.966,317.862,510.116,319.799L510.116,319.799z"/>
<g>
	<path style="fill:#90BAE1;" d="M379.595,440.896c-3.937,0.009-7.403-2.592-8.496-6.375c-1.092-3.782,0.453-7.831,3.789-9.923
		l0.035-0.022c32.946-20.124,59.338-49.384,75.97-84.224c1.909-4.485,7.093-6.573,11.578-4.664
		c4.485,1.909,6.573,7.093,4.664,11.578c-18.177,38.208-47.052,70.32-83.121,92.44C382.671,440.486,381.147,440.897,379.595,440.896
		L379.595,440.896z"/>
	<path style="fill:#90BAE1;" d="M255.97,476.224c-0.015,4.869-3.958,8.813-8.828,8.828H132.384v-8.828
		c-4.679-2.825-9.269-5.738-13.771-8.828h128.53C252.012,467.411,255.955,471.355,255.97,476.224L255.97,476.224z"/>
	<path style="fill:#90BAE1;" d="M393.504,467.397c-4.502,3.001-9.181,6.003-13.859,8.828h-0.088v8.828h-26.483
		c-4.875,0-8.828-3.952-8.828-8.828s3.952-8.828,8.828-8.828H393.504z"/>
</g>
<path style="fill:#AF8066;" d="M174.138,251.562l97.103-117.054L377.261,6.773c6.221-7.465,17.312-8.482,24.787-2.273
	s8.51,17.298,2.314,24.783l-87.305,105.225l-91.542,110.345l-10.505,12.623"/>
<path style="fill:#7F5B53;" d="M209.184,256.771l16.331-11.917l138.946-101.606l119.437-87.305c3.763-2.782,8.48-3.946,13.105-3.234
	c4.625,0.713,8.773,3.243,11.524,7.03c2.785,3.761,3.951,8.48,3.238,13.106s-3.246,8.775-7.034,11.523l-114.494,83.774
	l-109.992,80.419l-0.088,0.088"/>
<path style="fill:#BDC3C7;" d="M317.754,271.397c-1.74,0.001-3.442-0.515-4.888-1.483l-19.418-12.944
	c-2.196-1.447-4.932-1.814-7.431-0.996l-12.94,4.31c-5.377,1.784-11.187,1.784-16.565,0l-12.931-4.31
	c-2.498-0.83-5.239-0.462-7.431,0.996l-7.578,5.047c-10.396,6.896-24.208,5.527-33.047-3.276c-2.28-2.299-5.67-3.099-8.737-2.06
	l-9.478,3.159c-6.589,2.219-13.792,1.707-20-1.422c-3.29-1.658-7.273-1.018-9.879,1.586l-8.806,8.806
	c-3.447,3.447-9.036,3.447-12.483,0c-3.447-3.447-3.447-9.036,0-12.483l8.806-8.806c7.966-7.978,20.147-9.957,30.228-4.909
	c2.03,1.031,4.389,1.203,6.547,0.478l9.478-3.159c9.411-3.173,19.808-0.719,26.806,6.328c2.884,2.864,7.381,3.31,10.771,1.069
	l7.573-5.047c6.717-4.505,15.145-5.634,22.81-3.056l12.931,4.31c1.753,0.586,3.648,0.586,5.401,0l12.94-4.31
	c7.666-2.571,16.091-1.442,22.81,3.056l19.414,12.944c3.238,2.159,4.68,6.183,3.55,9.907
	C325.081,268.855,321.646,271.4,317.754,271.397L317.754,271.397z"/>
<g>
</g>
<g>
</g>
<g>
</g>
<g>
</g>
<g>
</g>
<g>
</g>
<g>
</g>
<g>
</g>
<g>
</g>
<g>
</g>
<g>
</g>
<g>
</g>
<g>
</g>
<g>
</g>
<g>
</g>
</svg>
